<?xml version="1.0"?>
<svg id="Capa_2" data-name="Capa 2" xmlns="http://www.w3.org/2000/svg" viewBox="0 0 178.81 209.55">
  <defs>
    
  </defs>
  <g id="Capa_1-2" data-name="Capa 1">
    <g>
      <path class="cls-1" d="m2.49,185.02c.23,2.16.25,4.08.08,3.27.31,2.2.49,3.32.61,3.97.11.64.18.8.45,1.06.59,2.79.91,5.82.13,2.66l.9,4.02.45,2.01.53,1.99c-.38-1.6-.65-3.22-.93-4.83.33.62.6,2.56,1.07,4.5.43,1.94.88,3.92,1.27,4.62l-1.03-4.33c-.17-.72-.35-1.44-.51-2.17l-.43-2.18.2.41c-.25-.98-.55-2.44-.81-3.82-.21-1.39-.37-2.7-.45-3.38.09.2.17.05.41,1.6-.81-5.28-.91-5.99-1.17-6.46-.11-.24-.23-.41-.38-1.09-.07-.34-.16-.8-.25-1.45-.08-.65-.14-1.5-.22-2.61.04.56.07,1.25.09,2.2Z"></path>
      <path class="cls-1" d="m3.12,175.95c-.13-1.23-.2-2.47-.3-3.71.04-1.04.21-2.06.32-3.09.12-1.03.23-2.05.43-3.06-.15-.09.43-4.58-.19-1.58-.07.6-.21,1.77-.37,2.72-.12-.36.15-2.42.4-4.16.33-1.72.59-3.14.22-2.29-.51,2.42-.7,3.83-.85,5.01-.18,1.17-.21,2.13-.22,3.66-.06.56-.12,1.11-.18,1.63-.03.53-.07,1.04-.1,1.52-.06.98-.12,1.88-.18,2.71-.06,1.66-.09,3.02-.15,4.08.04,1.35.32,1.53.44,3.24-.02-.38-.05-.73-.08-1.16l.51-.2c-.22-1.42-.1-2.76-.14-4.34.11,1.22.2,2.43.33,3.64l.5,3.62c.21-1.19.03-3.55.09-5.97-.05-2.42.1-4.89.26-6.29-.6,3.48-.1-2.82-.75,4.02Z"></path>
      <path class="cls-1" d="m2.4,182.64s0,.12.01.18c0-.06,0-.13-.01-.18Z"></path>
      <path class="cls-1" d="m129.07,96.34c-.27,1.55-.23,2.04-.21,2.27.51-2.92,1.03-5.82,1.68-8.67.64-2.85,1.43-5.67,2.31-8.47-.31.48-1.9,5.31-1.02,2.03-.61,1.4-1.64,5.9-1.56,6.6l.08-1.29c-.66,4-1.63,6.66-1.3,4.01l-.07.34c-.39,3.77-.64,7.56-1,11.38.81-4.13.21-3.25,1.08-8.2Z"></path>
      <path class="cls-1" d="m24.8,191.92c1.74-1.5,1.97-1.67,1.72-1.56-.63.53-1.23,1.04-1.72,1.56Z"></path>
      <path class="cls-1" d="m127.71,107.23c-.13,1.2-.29,2.41-.45,3.62.24-1.45.4-2.72.45-3.62Z"></path>
      <path class="cls-1" d="m128.07,81.85s-.02-.05-.07.03l-.3,1.62s0-.03.01-.04c.13-.59.25-1.12.36-1.61Z"></path>
      <path class="cls-1" d="m72.26,153.17c.36-.14.66-.26,1.09-.43-.4.16-.76.3-1.09.43Z"></path>
      <path class="cls-1" d="m138.6,36.47c.19,2.4.2,4.8,0,7.19,0-.96-.46,2.46-.41.94-.02.55-.48,3.05-.27,2.38.1-.47.18-.95.27-1.43-.12,1.89-.1,2.28-.13,3-.05.72-.16,1.75-.99,5.03,1.47-3.95,1.66-5.73,1.84-7.8.1-.7.16-1.29.24-1.89.07-2.02-.03-4.04-.24-6.05-.1-.46-.18-.92-.3-1.37Z"></path>
      <path class="cls-1" d="m127.96,168.53l.09-.03c-.08,0-.09.02-.09.03Z"></path>
      <path class="cls-1" d="m128.4,168.37l-.35.12c.43-.05,2.05-.06.35-.12Z"></path>
      <path class="cls-1" d="m127.7,105.87c.06.12.07.59.01,1.35l.27-2.69c-.08.37-.19.87-.29,1.33Z"></path>
      <path class="cls-1" d="m127.86,99.73c.36-2.2.73-4.39,1.13-6.57l.28-2.44c-.46,2.5-.93,5.44-1.41,9.01Z"></path>
      <path class="cls-1" d="m79.99,157.47c-13,5.11,3.02-1.69-3.01.51-2.25.92-3.56,1.51-4.76,2.07l-2.21-5.89c.73-.33,1.42-.65,2.25-.99-.96.37-1.72.67-2.28.89l2.29,6.09c6.03-2.3-2.45,1.82,6.97-1.94-.86.64-3.71,1.87-6.58,2.96l-3.06-8.14c1.54-.59,3.09-1.14,4.34-1.57,4.08-1.09-3.17,1.51-4.08,2.27l-25.7,21.57,28.23-14.83s.05-.03.06-.04c-.03.01-.06.03-.07.03l-2.52-6.71c4.06-1.6,3.32-1.4,5-2.27,6.58-2.37,13.51-5.43,17.72-6.18,4.86-1.64,4.49-1.7,7.27-2.75.22-.29-1.64.18-3.79.78-2.13.63-4.57,1.35-5.52,1.5.39-.09,1.14-.26.94-.13l-4.23,1.32c4.04-1.19-.42.59-2.51,1.38-1.54.54-4.57,1.66-4.19,1.4l2.28-.93c-3.03.94-6.46,2.69-9.65,3.63-.2-.03.96-.52,1.12-.64-1.53.72-3.06,1.37-4.76,2.07l3.15,8.37c2.03-.84,4.31-1.75,7.11-2.98l-2.85,1.58c3.97-2.03,13.45-5.68,19.9-8.93-.74.31-2.03.94-1.31.46,1.84-1.03,3.49-1.86,4.47-2.35.99-.47,1.32-.51.53.09.43-.3.96-.65,1.58-1.03.61-.4,1.31-.86,2.05-1.34,1.52-.93,3.19-2.15,4.92-3.36,3.41-2.52,6.69-5.66,8.48-8.02,2.71-3.65,4.92-7.67,6.56-11.84,1.61-4.2,2.51-8.49,3.13-12.7-.18.94-.36,1.95-.64,2.98-.49,1.08-.83,1.91-.95,1.97-.11.07.05-.63.4-2.64-.42,1.95-.5,2.57-.66,3.44-.08.43-.19.92-.43,1.66-.21.74-.57,1.73-1.16,3.14.37-1.15.5-1.9.26-1.69-.26.2-.78,1.39-2.1,3.97-3.19,6.52-7.01,11.37-11.21,15.58-4.25,4.17-8.94,7.72-14.76,11.13-.15-.01-.83.31-1.86.8-1.03.48-2.41,1.12-3.92,1.82-3.02,1.37-6.58,2.91-8.94,3.8,1.67-1.01,5.09-2.53,8.61-4.24-2.23,1.01-6.09,2.71-8.99,3.83l-.94,1.06Z"></path>
      <path class="cls-1" d="m108.71,140.86c-.29.21-.6.44-.91.66.17-.11.45-.31.91-.66Z"></path>
      <path class="cls-1" d="m91,152.09s.02-.03.03-.05c-.37.19-.73.37-1.11.55.38-.17.82-.37,1.08-.5Z"></path>
      <path class="cls-1" d="m126.38,108.98c.11-.83.19-1.45.28-2.28-.08.51-.18,1.15-.28,1.76-.09.59-.11.87,0,.52Z"></path>
      <path class="cls-1" d="m127.46,106.32l.03.46c.08-.35.13-.6.2-.91-.05-.11-.12-.02-.24.45Z"></path>
      <path class="cls-1" d="m113.6,142.81l1.29-.33c-.79.17-1.12.26-1.29.33Z"></path>
      <path class="cls-1" d="m76.91,151.7c-4.5,1.7-.43.62-6.71,2.98l1.82,4.83s.04-.02.07-.03l-.07.03-1.81-4.83,1.81-.65c-.55.22-1.14.47-1.78.73l1.76,4.67c4.65-1.85,11.49-4.46,16.21-6.63-.53.44,3.35-1.29,2.83-.77,3.64-1.79,7.15-3.8,8.81-5.13,1.13-.57,2.44-1.5,3.83-2.43,1.39-.95,2.79-2.04,4.13-2.96-.58.36.23-.47.43-.76.19-.31-.14.05-3.28,2.39.5-.39.16-.19.65-.57-4.24,2.71-5.78,4.03-9.56,6.11-1.17.53-.28-.02.64-.57.92-.54,1.83-1.16.77-.56-2.31,1.36-6.07,3.26-9.24,4.67-3.16,1.45-5.69,2.54-5.4,2.77-3.57,1.5-4.12,1.56-5.23,1.87-1.36.72-3.38,1.55-5.63,2.42l-1.64-4.36c6.7-2.6,15.55-5.39,15.31-5.95-2.1.76-5.52,1.98-8.51,3.28l-.19-.55Z"></path>
      <path class="cls-1" d="m124.29,116.91c-.1.28-.24.66-.33.9.1-.27.22-.6.33-.9Z"></path>
      <path class="cls-1" d="m142.75,59.27l-.14,2.12c-1.85,5.54-3.26,9.17-4.52,12.63-1.26,3.46-2.47,6.72-3.8,11.36-.28.69,0-.45.15-1.03-.47,1.64-.96,3.47-1.42,5.39-.44,1.92-.86,3.95-1.22,5.95-.72,4.02-1.33,7.93-1.71,10.53-.21,1.12-.68,3.17-1.09,4.66-.42,1.48-.74,2.39-.54,1.24-.21,1.12-.53,2.4-.91,3.67-.28.28.76-2.87.59-2.98-.26,1-.43,1.39-.43,1.64.15-.87-.13-.48-.18-.85-.06-.37.17-1.51,1.01-5.43.53-1.47.29-.11-.03,1.41-.3,1.52-.72,3.21-.24,2.37.63-2.62.34-2.35.34-2.59.71-3.32.79-3.2.88-3,.1-1.3,1.04-5.39,1.1-7.14,1.07-6.27.31.4,1.04-3.67l-.06-2.42c.47-2.22,1.01-4.38,1.63-6.54,1.23-4.73,1.01-4.46.7-4.36-.26.1-.58.02,1.13-5.42-.24,1.5,1.67-2.65,3.64-7.65-1.09,3.03-2.81,8.66-4.17,12.47,1.08-2.66.46-.78-.2,1.42-.66,2.2-1.3,4.74-.7,3.39.5-2.74,1.92-7.23,3.29-10.68l-.36,1.16c1.35-3.7,1.91-6.69,4-11.83.92-2.61.88-2.08.83-1.57.71-2.24,1.29-4.27,1.39-4.24Zm-1.89,5.75l-1.31,3.44c.38-.79.85-2.08,1.31-3.44Z"></path>
      <path class="cls-1" d="m22.01,132.15c-.27.23-.58.49-.82.7.19-.14.5-.41.82-.7Z"></path>
      <path class="cls-1" d="m96.01,79.46l-.73,1.93c.3-.75.53-1.37.73-1.93Z"></path>
      <path class="cls-1" d="m82.35,125.47l-1.36,2.93c.57-1.14.98-2.05,1.36-2.93Z"></path>
      <path class="cls-1" d="m41.05,115.2l.08-.08c.11-.14.2-.24.32-.39l-.4.46Z"></path>
      <path class="cls-1" d="m46.42,153.51c.32-.33.66-.72,1.12-1.25-.09.04-.51.51-1.12,1.25Z"></path>
      <path class="cls-1" d="m82.6,124.93c-.04.07-.06.11-.1.17-.05.12-.1.24-.15.37l.25-.54Z"></path>
      <path class="cls-1" d="m106.99,62.6c.24-.36.45-.69.71-1.08-.35.5-.55.82-.71,1.08Z"></path>
      <path class="cls-1" d="m104.12,64.09c.26-.4.51-.77.7-1.07l-.7,1.07Z"></path>
      <path class="cls-1" d="m137.16,22.53c.1.21.22.43.32.67-.13-.39-.24-.57-.32-.67Z"></path>
      <path class="cls-1" d="m108.78,58.44c.08-.14.17-.28.22-.37-.23.3-.32.46-.22.37Z"></path>
      <path class="cls-1" d="m9.53,144.64c.03-.06.07-.11.09-.15l-.02-.09-.07.24Z"></path>
      <path class="cls-1" d="m7.16,151.04c-.28.74-.58,1.52-.87,2.28.34-.84.65-1.66.87-2.28Z"></path>
      <path class="cls-1" d="m64.75,117.83c.25-.7.75-2.37.64-1.56.23-1.4-.04-1.37-.64,1.56Z"></path>
      <path class="cls-1" d="m15.67,131.59c-.28.38-.66.84-1.03,1.29.72-.83,1.35-1.56,1.03-1.29Z"></path>
      <path class="cls-1" d="m14.64,132.88c-.36.4-.7.88-1,1.26.36-.44.67-.89,1-1.26Z"></path>
      <path class="cls-1" d="m62.29,137.33c-.11.16-.26.42-.44.78.11-.08.26-.36.44-.78Z"></path>
      <path class="cls-1" d="m5.57,155.16c0,.12-.23.83-.44,1.72-.2.9-.44,1.96-.61,2.73-.15.78-.19,1.29-.11,1.05.05-.12.12-.43.27-.97.16-.54.38-1.31.69-2.38.15.22-.23,1.59-.6,3.22-.18.82-.37,1.7-.54,2.52-.18.82-.26,1.6-.34,2.19.36-1.68.11.88.33.39.06-.58.13-1.22.21-1.95.11-.73.28-1.54.49-2.48.18-.41.14.1,0,.99-.08.45-.18.99-.28,1.56-.09.58-.18,1.18-.29,1.74.64-2.74-.25,3.56.52-.33,1.25-8.38,3.41-13.95,5.82-19.4-2.35,4.22-4.16,9.33-5.29,13.14l.13-1.71c.8-2.12,1.42-3.82,2.11-5.49.68-1.67,1.4-3.32,2.48-5.25-1.66,2.86-3.04,5.89-4.12,9.04-.46,1.08-.68,1.73-.8,2.01-.13.28-.14.21-.08-.12.09-.67.63-2.29,1.2-4.06-.31.86-.58,1.64-.72,1.84Z"></path>
      <path class="cls-1" d="m5.47,147.62l-.08.16c-.06.15-.13.32-.16.42l.24-.58Z"></path>
      <path class="cls-1" d="m140.2,11.33l.57,1.03c-.46-.94-.61-1.19-.57-1.03Z"></path>
      <path class="cls-1" d="m9.87,142.93h0c.03-.06.04-.07,0,0Z"></path>
      <path class="cls-1" d="m129.28,20.74c.01-.05.02-.11.04-.2-.04.13-.03.13-.04.2Z"></path>
      <path class="cls-1" d="m133.35,29.48s.05-.04.11-.12c.2-.46.08-.25-.11.12Z"></path>
      <path class="cls-1" d="m129.3,20.78s-.03.01-.02-.04c0,.03-.01.1.02.04Z"></path>
      <path class="cls-1" d="m80.31,114.83s.17-.29.41-.76c.04-.2-.06-.02-.41.76Z"></path>
      <path class="cls-1" d="m87.02,94.91c.05-.13.08-.2.14-.36l-.14.36Z"></path>
      <path class="cls-1" d="m62.02,122.13c-.33.96-.56,1.68-.75,2.29.24-.7.5-1.45.75-2.29Z"></path>
      <path class="cls-1" d="m129.32,20.54c.09-.37.26-.85.48-1.73-.25.97-.41,1.43-.48,1.73Z"></path>
      <path class="cls-1" d="m65.78,143.28c.13-.18.26-.36.38-.53l-.26.29-.12.24Z"></path>
      <path class="cls-1" d="m58.29,151.38c.23-.3.33-.45.45-.63-.65.74-1.47,1.6-2.36,2.47-.87.89-1.81,1.79-2.69,2.6-1.73,1.67-3.27,2.99-3.47,3.42,1.04-.84,6.29-5.39,5.54-4.46,1.92-1.97,4.95-4.72,5.88-5.9-3.21,3.2-.52.18,1.4-2.19,1.88-2.04-.12.58,1.48-1.2,1.37-1.65,2.69-3.35,3.96-5.07l-1.72,2.21-1.77,2.17.8-1.54c-.12.17-.2.28-.33.46-2.95,3.7-3.22,3.73-3.45,3.83-.12.05-.24.1-.73.6-.48.5-1.33,1.45-2.98,3.22Z"></path>
      <path class="cls-1" d="m58.74,150.76c.39-.44.73-.83.98-1.15-.61.64-.82.92-.98,1.15Z"></path>
      <path class="cls-1" d="m33.55,172.68c.37-.32.78-.67,1.27-1.12-.23.22-.8.7-1.27,1.12Z"></path>
      <path class="cls-1" d="m130.43,86.14c.1-.15,1.86-5.33,1.61-5.31-.52,1.54-1.02,3.11-1.48,4.69l-.13.62Z"></path>
      <path class="cls-1" d="m68.49,78.12l.24,1.69c.03.11.06.23.09.31-.01-.36-.23-1.46-.33-2Z"></path>
      <path class="cls-1" d="m54.6,156.05c.72-.71,1.02-1.05,1.16-1.26-.45.48-.88.9-1.16,1.26Z"></path>
      <path class="cls-1" d="m68.98,77.29c-.06-.86-.23-2.18-.19-2.47-.17-.85-.34-1.54-.52-2.19-.2-.64-.4-1.27-.61-2.05.5,1.77.95,4.07,1.32,6.72Z"></path>
      <path class="cls-1" d="m67.63,70.45s.02.09.04.13c-.01-.04-.02-.08-.04-.13Z"></path>
      <path class="cls-1" d="m129.53,89.28c-.09.46-.18.94-.27,1.43l.1-.76c-.31,1.22-.58,2.45-.85,3.68-.07.45-.15.94-.25,1.54.04-.24.05-.43.04-.55-.08.4-.17.79-.25,1.19-.27,3.01-1.33,10.47-1.68,12.64-.47,2.86-1.34,6.33-2.09,8.45.67-1.98,1.31-4.65.96-3.89-.63,2.01-1.23,3.46-1.98,5.25-.78,1.78-1.59,3.95-3.28,7.18.68-1.25,1.41-2.47,1.98-3.78-.54,1.51-1.31,2.92-1.99,4.39-.33.74-.8,1.4-1.19,2.11-.42.69-.8,1.41-1.27,2.07-.58.63-.69.69-.53.42.16-.27.63-.86,1.08-1.64.47-.76,1.03-1.65,1.51-2.42.42-.8.75-1.49.87-1.81-.79,1.71-1.86,3.16-2.81,4.55-.49.69-1.05,1.29-1.55,1.9-.52.59-.98,1.2-1.51,1.7-1.05,1.02-1.94,2-2.81,2.8-.86.8-1.59,1.54-2.14,2.22-.28.05-.67.1-1.44.52-.78.42-1.91,1.26-3.88,2.65,3.03-1.76-2.23,1.87.31.5-.32.28-.75.61-1.23.96-.5.31-1.04.65-1.54.97-1.01.62-1.85,1.16-1.92,1.32.11-.11.22-.22.32-.34-3.67,1.93-6.06,3.25-7.92,4.35-1.86,1.1-3.16,1.99-4.73,2.82-6.9,3.19-11.1,4.62-16.06,6.48l-.81-2.15c1.49-.56,3.07-1.15,4.83-1.81.37.08,2.6-.18,5.63-1.3,1.31-.78,8.13-3.32,8.74-3.86-5.51,1.74-4.38,1.81-7.6,3.05-2.82.64-.37-.26-4.13.9,1.51-.48,4.85-1.77,8.27-2.97,3.41-1.22,6.9-2.36,8.61-2.71l-1.16.42c2.68-.75,4.34-.98,6.42-1.4,1.04-.22,2.18-.48,3.62-.84,1.43-.39,3.16-.88,5.39-1.53,1.41-.43,2.84-.79,4.27-1.15-.2.08-.22.12-.32.17.89-.17,1.63-.32,2.28-.44.65-.09,1.19-.17,1.66-.24.95-.12,1.63-.2,2.33-.28.7-.09,1.42-.18,2.46-.3,1.04-.13,2.39-.4,4.38-.63-.61.08-.22.08-.84.16,4.54-.31,9.11-.79,12.57-.82,2.1.32-.51.27-1.81.48,2,0,4.03.11,6.04.19,2.01.07,3.99.27,5.88.48,3.77.44,7.14,1.17,9.58,1.84l1.22.47,1.2.53,1.2.53,1.17.6c-2.86-1.27-6.55-2.1-5.71-1.64,1.35.44,1.92.56,2.59.82.68.25,1.51.5,3.31,1.42-.35-.06-.93-.24-1.63-.47-.72-.2-1.58-.43-2.49-.68.94.42,1.67.74,2.25.98.56.27.97.45,1.27.57.6.24.77.24.87.22.19-.05.12-.23,2.51,1.42,2.2,1.35,3.53,2.09,3.91,2.09.62.49,1.16,1.09,1.72,1.64.58.54,1.08,1.16,1.59,1.76.13.04.43.29.86.68.4.44.92,1.05,1.5,1.75.57.72,1.09,1.6,1.68,2.48.25.46.5.93.75,1.4.12.23.25.46.37.69l.18.34s.04.06.03.08l-.07.04-.14.07c-.44.14-.86.27-1.25.4-.15.1.54-.04,1.52-.29.36-.04.07-.39-.04-.67-.14-.29-.29-.59-.44-.88-.3-.59-.59-1.16-.88-1.53.12.08.44.45.79,1.07.18.31.39.66.62,1.05.11.2.23.4.35.61l.18.32c.04.1-.09.13-.13.19-1.31.44-2.84.93-4.09,1.31-.38-.04-1.8.33-3.46.79-1.54.44-3.46,1-5.27,1.52-3.62,1.04-6.79,1.83-5.38,1.11-5.64,1.58-12.53,3.14-19.07,3.91-3.26.42-6.43.58-9.26.65-2.84.05-5.31-.03-7.25-.05-2.55-.26-7.73-.68-4.6-.73-9.39-.7-14.31-.87-23.52-2.36-.75-.19,4.18.6,3.88.36-3.04-.32-5.77-.8-8.92-1.24-3.15-.45-6.73-.81-11.43-.52.79-.07,1.29-.12,1.64-.15.34-.04.51-.09.62-.12.16.05-3.85.3-6.24.71-1.36.13,1.79-.31,1.03-.28-9.05.89-16.79,3.46-23.97,6.94-7.2,3.49-13.98,7.74-21.3,13.05,2.12-1.47,3.53-2.57,4.4-3.32.87-.76,1.21-1.15,1.2-1.22-1.41.94-2.78,1.92-4.18,2.88-1.53,1.22-4.52,3.58-6.96,5.63-.36.18-1.63,1.06-.44.03-2.04,1.47-3.71,2.95-5.33,4.34-1.62,1.38-3.05,2.83-4.53,4.33-1.46,1.51-3.05,2.99-4.7,4.75-1.67,1.74-3.54,3.63-5.76,5.75,3.35-3.66,6.64-7.39,10.19-10.88l-2.91,2.29,4.61-4.7c-3.05,2.49-5.23,5.16-5.78,5.26.55-.62,2.05-1.95,1.99-2.11-2.88,2.44-2.91,2.85-4.89,4.87.61-.71,1.31-1.49,2.08-2.33.77-.83,1.65-1.67,2.56-2.57.92-.89,1.88-1.81,2.86-2.76.49-.47,1-.95,1.5-1.42.52-.46,1.05-.92,1.58-1.38,4.17-3.73,8.64-7.21,11.8-9.6,1-.75-.8.72-.93.91,1.31-.95,2.4-1.64,3.56-2.41,1.17-.76,2.37-1.66,4.09-2.75,2.02-1.54-1.78.81-3.39,2,.05-.17.29-.4.73-.75.45-.35,1.11-.82,2.06-1.42.3.02,2.88-1.66,5.81-3.31,1.49-.79,3.04-1.62,4.38-2.34,1.37-.66,2.56-1.14,3.25-1.38,2.66-1.36,3.94-1.87,4.43-2.17.49-.28.23-.27-.04-.25-.27.02-.55.05-.07-.19.24-.12.66-.31,1.37-.61.71-.29,1.68-.73,3.1-1.16l3.43-.81c6.39-2.34,15.28-4.05,23.1-3.56-.55-.03-1.09-.07-1.64-.05-1.1.16.71.2,1.5.36,2.94.19,5.67.45,8.12.73,2.44.28,4.59.58,6.28,1,3.27.3,7.59.77,12.03,1.11,4.44.35,8.99.58,12.7.66.99.26-1.44.28-4.49.13-3.06-.14-6.74-.43-8.3-.48,2.24.25,4.49.45,6.74.63-4.17-.32-5.83-.36-8.36-.38,5.9.73,7.89.5,13.51.72-.44.09.3.23,2.9.33l.75-.27s.33.06,1.13.11c3.32.04,6.6-.1,9.89-.44-2.11,0-2.22-.19-4.76-.13.91.14-1.24.29-3.79.23,1.12-.09.5-.13-.39-.18-.9-.06-2.08-.14-2.05-.22,2.61.13,5.39.09,8.02-.04,2.61-.17,5-.43,6.66-.69l1.12.13c4.86-.57,9.9-1.84,13.16-2.55l-.99.39c2.88-.65,5.72-1.4,8.47-2.19,1.38-.39,2.74-.77,4.07-1.14.67-.18,1.33-.36,1.98-.54l.75-.19.67-.16c.81-.33,1.68-.68,2.61-1.05.24-.01.03-.21-.05-.35l-.28-.45c-.19-.29-.35-.59-.56-.85-.42-.53-.76-1.02-1.22-1.48-.21-.22-.42-.44-.63-.65-.32-.3-.64-.59-.95-.87-.32-.28-.61-.58-.92-.83-.32-.24-.63-.47-.92-.69-.88-.6-3.61-2.97-7.3-4.83-3.64-1.91-8.09-3.33-10.96-3.66-.18-.06.79.1,2.05.32,1.25.26,2.8.59,3.74.88-3.62-1.28-6.73-1.4-7.83-1.99,2.12.41,3.13.69,3.55.76.42.07.23-.02-.11-.15-.66-.26-1.91-.7,0-.3-3.96-.97-8.25-1.36-10.26-1.31,1.66.07,2.32.22,2.51.28.19.06-.11.09-.4.12-.58.06-1.14.06,2.15.36-2.55-.18-5.61-.27-8.79-.27-1.59.03-3.21,0-4.82.1-1.61.07-3.21.11-4.75.25.05-.16-.72-.19-3.03-.01l-1.82.48c-2.89.34,5.54-1.01-.28-.33-2.97.55-7.45,1.33-11.49,2.22-4.03.91-7.62,1.94-8.79,2.65-2.26.53-.18-.21,1.65-.77,1.82-.57,3.36-1.08-.06-.35,3.85-1.39,9.39-2.26,10.63-2.88-3.87.92-1.49-.04-4,.54-1.43.43-2.86.82-4.27,1.28l.96-.24c-3.57,1.11-8.21,2.44-13.05,4.04-4.85,1.59-9.91,3.36-14.41,5.05-2.84,1.2-5.32,2.3-7.81,3.4l-1.68-4.46c4.09-1.8,8.17-3.55,13.68-5.91-2.5,1.37,7.38-3.09,2.02-.23,2.08-.82,4.06-1.81,5.54-2.59,1.46-.8,2.39-1.43,2.39-1.52-3.47,1.78-1.22.62-4.21,2,1.95-1.09,6.4-3.54,8.24-4.51-.84.47-.51.32-.66.48,2.04-1.1,2.43-1.51,2.73-1.76.28-.29.45-.47,1.78-1.44.25-.1.75-.41,1.4-.85.65-.43,1.45-1,2.24-1.66,1.65-1.26,3.29-2.85,4.45-3.82.89-1.15,1.83-2.24,2.63-3.43-1.29,1.99,2.69-3.1,3.13-3.61.84-1.29,1.37-2.61,2.07-4.05.69-1.44,1.36-3.1,2.19-5.29-.27.93.15-.05.64-1.29.48-1.24.99-2.76,1.12-2.77,1.22-3.92,1.65-7.39,2.11-10.79.45-3.41.84-6.83,1.86-10.84,0,.26-.16,1.92.39-.42.31-1.88,1.14-5.12,1.69-7.08v.06s0-.06.01-.1c.26-.96.41-1.57.36-1.61.78-3.38,1.07-5.2,3.17-11.61-.45.35-2.28,5.77-2.95,8.19l-.38,2.15c-1.07,1.84-1.65,5.99-2.14,7.51.21-2.09,1.16-6.03,2.46-10.19,1.3-4.16,2.88-8.55,3.92-11.85-1.8,3.8-5.26,12.48-7.23,20.7.35-1.19.73-2.36,1.12-3.52-.4,1.4-.76,2.81-1.11,4.24.44-1.35.9-2.69,1.38-4.02-1.18,3.96-1.84,7.52-2.52,11.1.78-4.23,1.58-5.81,1.01-3.42-1.22,4.66-.74,4.94-1.38,8.47.36-1.95.83-4.54.7-2.85-.79,3.47-1.19,5.65-1.62,7.73-.44,2.07-.85,4.07-1.81,6.98.32-.31-.12,1.56-.77,3.54-.64,1.99-1.52,4.07-1.53,4.55.38-.84.75-1.68,1.08-2.55-.62,1.87-1.25,3.73-2.17,5.46-1.49,2.27-.99,1.16-.67.39.17-.39.29-.7.11-.47-.09.11-.25.36-.53.79-.13.22-.3.48-.49.8-.21.31-.48.66-.78,1.07-.54.77-.97,1.47-1.4,2.05-.44.58-.83,1.08-1.17,1.53-.65.93-1.22,1.6-1.74,2.25-1.01,1.31-1.97,2.44-4.25,4.45.69-.75,1.84-1.99,3.23-3.5.65-.79,1.41-1.59,2.14-2.48.68-.92,1.46-1.83,2.15-2.8-.58.76-1.27,1.45-1.9,2.18.21-.33.62-.89,1.16-1.59.55-.69,1.08-1.62,1.72-2.53,1.2-1.88,2.35-4.04,3.02-5.52-.99,2.51-.7,1.96,0,.5.69-1.46,1.63-3.93,2.1-5.12-.13-.52-1.16,2.88-.11-1.19-.57,1.88-.94,2.93-1.39,4.09-.49,1.13-.95,2.42-2.2,4.5,1.31-2.26,1.94-4.08,2.39-5.55.23-.74.4-1.39.53-2.01.14-.61.26-1.17.34-1.73.39-2.24.69-4.29,1.72-9.1-.72,4.48.7-1.47.92-2.02.34-2.18,1.04-6.61,1.33-8.43l-.72,1.59c.95-5.96,2.24-8,3.88-14.82.02-.47-.47.99-.89,2.45-.43,1.45-.77,2.89-.63,2.26,1.16-4.73,2.34-7.77,3.51-10.64,1.18-2.86,2.43-5.52,3.99-9.32.04-.48-.23-.48.53-3.24-.07.93.77-1.02-.16,2.07,1.04-2.54,1.92-5.62,2.56-7.92-1.91,5.29.41-2.3.51-3.31.84-2.72,0,.9-.49,2.63.78-2.19,1.89-4.72,1.83-6.04.14-.01-.08,1.54-.56,3.66-.48,2.11-1.23,4.77-1.91,6.84l.98-2.77c-.52,1.96-.67,2.3-1.68,5.05,1.14-2.63,1.26-2.3,1.21-1.61-.16.34.01-.22-.14.11-.84,2.2-1.4,3.94-1.08,3.47-.4,2.12,1.33-3.02,2-4.47.36-1.15.72-2.3,1.07-3.43.45-1.99.86-3.99,1.19-5.95.33-1.96.52-3.83.59-5.75.25-2.42.32-4.18.4-5.81.03-.81.07-1.59.06-2.4.02-.81-.01-1.65-.07-2.58-.13-.33-.26-.66-.41-.98-.52-4.27-1.54-8.29-.5-5.66-.07.18.12.73.27,1.67.06.12.13.32.2.59.04.08.06.13.09.2-.22-1.15-.49-2.18-.72-3.09-.11-.45-.23-.95-.28-1.05-.06-.19-.12-.37-.17-.53-.22-.7-.3-.84-.32-.9.14.22.29.61.41.86.12.25.21.43.28.53.14.2.19.11.2-.12.03-.43-.09-1.48.25-1.23-.13-.46-.26-.77-.39-1.12-.13-.34-.24-.68-.38-1.01-.28-.65-.52-1.28-.82-1.87.47,1.37.38,1.45.24,1.18-.15-.29-.47-.86-.63-1.17,0-.34-.18-.81-.42-1.32-.06-.12-.12-.25-.19-.39l-.1-.2s-.04-.11-.05-.05l-.02.14c-.06.37-.12.75-.18,1.12-.1.58-.21,1.1-.3,1.44v-.23c-.18.59-.43,1.39-.7,2.23-.15.44-.3.9-.44,1.33l-.11.32-.05.16-.13.33c-.17.45-.34.89-.5,1.3.17-.11-1.19,4.29-2.07,6.39,1.52-2.72,1.76-3.29,1.81-3.19.03.11-.25.85-.06.67-.29.57-.81,1.61-.85,1.75-.34.83.67-1.03.82-1.15.7-1.5,1.35-3.05,1.93-4.55.13-.35.26-.69.39-1.04l.05-.19c.03-.14.06-.28.09-.41.11-.56.18-1.21.18-2.01-.1.05-.14.39-.18.69-.04.31-.06.59-.18.78.05-.78.28-1.7.48-2.64.04-.19.07-.38.11-.59l.03-.15s.04.09.07.14c.05.1.09.2.14.31.07.4.13.77.18,1.12.17.29.38.61.56,1-.27-.31-.27.44-.69-.38.03.4.11.55.24.75.12.19.29.48.37.83.11-.03.23-.02.36.02-.05,0-.05.11-.05.24.03.19.06.45.09.66.05.43.02.58-.32-.19l-.06-.16s-.03-.05-.04-.07l-.07-.11c-.05-.07-.09-.14-.14-.19-.09-.11-.16-.18-.24-.21,0,.24,0,.44-.03.61-.06-.09-.11-.15-.15-.17,0-.15.02-.28.04-.4-.02-.01-.04-.02-.06-.04-.02-.02-.03-.05-.03,0-.01.06-.02.07-.03.05-.04-.05-.09-.36-.15-.45-.05-.11-.15.18-.24.9.04.2.07.33.09.43.02-.04-.05.17-.08.27l-.13.38c-.09.25-.18.51-.27.77-.2.52-.42,1.06-.64,1.62-.94,2.23-2.21,4.85-4.2,8.03,2.66-4.72.04-.62.86-2.49-1.43,2.34-2.38,3.9-3.17,5.19-.79,1.28-1.37,2.31-2.19,3.48-.5.5-.96.89-.89.71.07-.19.65-.96,2.1-2.93,0-.37-.91.94-1.96,2.32-1.06,1.37-2.25,2.79-2.58,2.8-2.63,3.01-4.56,5-6.05,6.61-1.48,1.59-2.58,2.82-3.53,3.98-.25.3-.41.54-.64.83-.24.34-.5.7-.76,1.07-.54.74-1.14,1.54-1.86,2.46-.37.45-.76.94-1.18,1.47-.39.54-.81,1.13-1.27,1.76-.46.63-.96,1.3-1.5,2.03-.27.37-.57.73-.84,1.13-.27.41-.54.83-.83,1.27l.17-.64c-.67,1.15-1.31,2.24-1.92,3.28-.61,1.04-1.07,2.1-1.6,3.08-1.06,1.95-1.83,3.9-2.67,5.78-.44.93-.75,1.92-1.13,2.89-.35.98-.75,1.95-1.08,2.99-.66,2.08-1.37,4.25-2.02,6.74-.91,2.52-1.74,5.15-2.64,7.76.43-1.81,1.38-6.64.56-4.49.74-1.88,1.4-3.78,2.01-5.76.67-1.94,1.28-3.93,2.11-5.84.03-.44-.65,1.11-.93,1.81.37-1.22.78-2.06,1.18-3.03.19-.48.4-.99.63-1.57.21-.59.47-1.23.79-1.99-.2.08-1.58,3.42-.67.85l2.05-3.98c1.25-2.7,1.47-3.42,1.73-4.26.24-.85.69-1.75,2.58-4.73-.23.63-.61,1.56-1.1,2.63-.23.54-.54,1.08-.79,1.69-.25.6-.53,1.22-.83,1.82,1.51-2.8-1.81,3.84-.33,1.33.44-1.06.85-1.97,1.26-2.83.39-.87.91-1.6,1.38-2.42.49-.81,1-1.66,1.59-2.63.64-.95,1.35-2.02,2.21-3.29-.37.62-.42.82-1.28,2.05l2.64-3.56,2.9-3.39c-.39.39-.31.22.03-.25.17-.23.4-.54.67-.89.13-.18.28-.36.42-.55.14-.18.27-.32.41-.49,1.17-1.32,2.92-3.03,2.45-2.84-.91.84-1.68,1.53-2.24,2.09-.31.29-.52.53-.74.75-.21.22-.44.52-.64.75-.8.97-1.36,1.65-1.95,2.37-.57.73-1.25,1.44-2.07,2.58-.8,1.16-1.98,2.61-3.5,4.85.76-1.33,1.77-2.78,2.58-4.18.79-1.42,1.62-2.64,2.1-3.46.07-.06.18-.18.4-.44.82-1.51-.34-.24-.77-.63-.71,1.06-1.47,1.94-2.08,2.88-.63.93-1.25,1.81-1.9,2.71-1.36,1.76-2.48,3.81-3.96,6.38-.15.56.38-.13,1.14-1.27.38-.57.81-1.25,1.24-1.95.43-.7.84-1.43,1.27-2.02-.5.71-.89,1.49-1.32,2.24l-1.26,2.27.41-.95c-2.36,3.72-4.23,7.72-5.94,11.8.93-2.33,1.14-3.17,1.53-4.44-.35.78-.71,1.56-1.09,2.34-.38.78-.78,1.56-1.12,2.41.41-.25.53.06-.05,1.62-.79,1.99-1.38,3.81-1.94,5.43-.58,1.61-1.02,3.07-1.46,4.35-.87,2.55-1.53,4.49-2.13,6-.08.33-.18.7-.25.99.7-1.35-1.11,6.19-1.63,8.93-.13-.11-.51.97-1.01,2.38-.51,1.4-1.04,3.15-1.6,4.33-.17,1.41,1.06-.11,2.29-3.03.81-2.94.95-3.78.97-4.24.03-.46-.07-.54.1-1.97.82-3.11,1.52-6.23,2.26-9.31l-.28,2.13c1.35-4.56,2.26-8.98,2.52-8.54-.22,1.23-.65,2.81-1.08,4.4-.41,1.61-.82,3.21-1.03,4.44l.96-2.99c-1.1,5.44-1.08,2.64-2.66,9.23,1.02-2.32-.15.6-.77,3.47.94-2.2,3.17-11.54,3.16-9.43-.36,1.73-1.26,4.53-2.29,7.52-.5,1.49-1.02,3.02-1.5,4.45-.49,1.44-.84,2.81-1.15,3.97l.02-.24c-.64,1.64-1.15,3.03-1.58,4.22-.42,1.19-.86,2.16-1.17,3.03-.67,1.71-1,2.98-1.55,4.19-.77,1.31-1.57,2.92-2.36,4.57-.86,1.61-1.77,3.24-2.59,4.66l-.1-.15c-.74,1.35-1.56,2.65-2.39,3.95,1-1.97,2.86-4.59,4.84-8.03l-.51.28c2.47-3.85,3.36-6.84,4.48-10.18-.46,1.2-1.03,2.64-1.71,4.11-.73,1.45-1.49,2.96-2.19,4.36-.34.71-.7,1.37-1.05,1.97-.34.61-.64,1.17-.92,1.67-.53,1-.86,1.74-.89,2.08-.61.87-1.26,1.71-1.93,2.54-.24.44-.49.89-.75,1.33-1.55,1.81-.37-.32,1.93-4.26.47-.64.7-.97.63-.73.96-1.9,1.84-3.64,4.16-8.21l-1.1,2.51c.72-1.43,1.46-2.81,2.08-4.15.57-1.36,1.11-2.65,1.6-3.81.5-1.16.85-2.23,1.13-3.14.29-.91.5-1.65.62-2.18-.42,1.07-.83,2.13-1.25,3.19-.4,1.07-.92,2.09-1.37,3.13-.47,1.04-.93,2.07-1.4,3.1-.52,1-1.04,2-1.55,3-.53.99-1,2.01-1.56,2.96-.57.96-1.13,1.91-1.69,2.85-1.1,1.91-2.25,3.76-3.47,5.53-.85,2.49-2.39,5.15-2.69,6.57-3.46,4.74-8.82,10.66-12.72,13.92l.26-.41c-.93.81-1.81,1.61-2.62,2.38-.82.75-1.59,1.45-2.3,2.09-2.08,1.58,1.13-1.42-.3-.3-2.06,1.85-4.17,3.65-6.35,5.37.26-.5,5.75-4.82,8.19-7.09-.46.43-1.38,1.29-1.05,1.06.75-.61,1.64-1.38,2.53-2.25.9-.86,1.85-1.77,2.71-2.68,1.77-1.77,3.27-3.41,4.01-3.88,1.24-1.43-2.4,3.02,1.97-1.67,2.98-3.11,3.55-4.47,3.73-4.89-.04-.12-4.51,4.99-3.12,3.08-2.2,2.49-2.93,3.63-6.05,6.52,1.18-1.14,2.44-2.63,3.61-3.93,1.13-1.34,2.18-2.49,2.83-3.08,2.02-2.56,2.64-3.85,2.59-4.14-.06-.3-.84.35-1.81,1.53.32-.21-1.5,2.11-2.78,3.63-1.27,1.52-1.88,2.34,1.08-.71-.58.76-1.31,1.65-2.13,2.63-.84.95-1.77,1.98-2.75,3.02-1.97,2.06-4.12,4.15-5.94,5.87l.13-.19c-1.54,1.38-3.09,2.75-4.7,4.06.63-.62,2.04-1.85,1.98-2.02l-3.19,2.88-3.28,2.78c1.84-1.58,1.21-1.17-.1-.21-1.33.94-3.38,2.38-4.31,2.95-.62.71-3.31,2.72-.56,1.05,3.1-1.89,1.66-1.32,4.33-3.23-1.19,1-2.37,2.03-3.59,3.01l-.35.19-2.16,1.82c-5.38,3.4,1.97-2.07-4.77,2.5l1.13-.19c-.52.32-1.05.64-1.6.98l-4.8-7.03c3.38-2.54,6.98-5.57,10.09-8.64,3.11-3.07,5.79-6.12,7.47-8.51-.86,1.51-1.03,2.37.62.63-1.67,2.14-5.23,6.29-7.96,9.06-.29.24.47-.72,1.67-2.11.58-.72,1.26-1.54,1.98-2.38.71-.85,1.42-1.74,2.12-2.52-.47.28-1.1.94-1.81,1.77-.72.83-1.55,1.79-2.33,2.74-1.61,1.86-3.15,3.53-3.58,3.43-2.48,2.3-4.02,3.63-5.11,4.66-1.1,1.01-1.77,1.7-2.68,2.5l3.91,5.73c1.2-.88,2.8-1.81,5.84-3.65-.07-.34,2.2-1.65,2.45-2.17-.77.35-2,1.08-3.49,2.06-1.49.96-3.27,2.09-5.1,3.27l-3.25-4.76c2.32-1.86,4.65-3.91,6.51-5.55-.41.41-1.25,1.23-1.38,1.43,3.23-2.77,4.39-4.12,6.36-6.34-.09.08-.19.17-.28.25,3.27-4.04,2.34-2.21,4.44-4.46.77-.91,3.41-4.26,2.81-3.85,1.17-1.43,2.35-2.86,3.46-4.35l-.44.02c1.69-2.63,2.28-3.07,3.51-5.63l-.21-.27c-1.3,2.23-2.74,4.36-4.2,6.48,2.06-3.33.37-1.07,2.61-4.72-1.12,2.12-.62,1.44.2.17.79-1.28,1.92-3.13,2.17-3.27l1.31-2.88-.3.76c.64-1.06.98-1.73,1.28-2.46.29-.74.59-1.53,1.21-2.83-.81,1.51-1.43,2.77-2.22,4.08-.77,1.32-1.46,2.81-2.5,4.72.76-1.39,1.74-3.53,2.67-5.47.89-1.96,1.61-3.76,1.94-4.46,1.14-3.1,2.26-5.14,3.24-8.08-.89,2.84-.49,2.43-.38,2.71.06.14.04.45-.3,1.42-.17.48-.41,1.13-.76,2.01-.34.88-.79,1.98-1.46,3.32.04-.23.46-1.1.65-1.43-.52.65-1.27,2.27-2,4.05-.79,1.75-1.64,3.63-2.18,4.81.27-.23.08.25.12.29.05.05.34-.33,1.46-2.37-.42.64-.08-.29.63-1.85.37-.77.74-1.75,1.2-2.75.43-1.01.99-2.04,1.42-3.05l.18.92,1.22-2.98c.41-.99.83-1.98,1.15-3.01l-.17.58c.54-1.1,1.08-2.73,1.67-4.62.52-1.91,1.1-4.05,1.68-6.2.32-1.58,1.06-5.39,1.44-8.18.33-2.8.44-4.54-.15-1.96.84-3.9.7-7.43.69-11.75-.06,1.8-.25,3.58-.41,5.37,0-1.59,0-2.67,0-3.47-.03-.8-.05-1.33-.07-1.81-.04-.97-.1-1.79-.47-4.3.12-.51.21-1.65.38-.63-.09-2.12-.22-4.48-.5-6.87l-.09-.9-.04-.41-.02-.17-.1-.69c-.06-.46-.15-.91-.24-1.34-.36-1.74-.86-3.18-1.17-3.17-.04-.15-.09-.3-.12-.44-.03.05-.05.16-.08.22-.05.14-.1.24-.15.32-.12.21-.25.38-.45.88-.19.48-.45,1.31-.78,2.53-.09.37.04.35.09.49.03.07.03.16,0,.33-.05.2-.18.54-.43,1.1-.04.06.07-.52.11-.86.02-.16,0-.25-.07-.11-.04.07-.1.2-.18.4-.12.31-.28.73-.5,1.28-.65,2.26-1.81,4.78-3.09,7.41-1.34,2.61-2.76,5.36-4.17,8.09-1.7,2.75-4.75,7.44-4.38,6.29,2.99-4.15,6.3-10.58,6.64-11.63-.14.72,1.77-3.17.23.26,1.83-3.4,2.27-4.58,2.7-5.65.4-1.08.79-2.06,2.12-5.25.07-.48-1.62,3.17-2.12,4.57-.1-.03.17-.84.59-1.94.2-.55.44-1.18.67-1.83l.36-.97.17-.46.09-.28c.24-.73.45-1.39.46-1.63.02-.24-.05-.25-.49.58-.22.62-.43,1.19-.62,1.72-.26.73-.49,1.4-.71,2.03-.46,1.25-.81,2.37-1.2,3.43-.79,2.12-1.58,4.13-3.27,6.85.99-2.36,2.9-5.88,3.74-9.04-.72,1.58-1.49,3.14-2.29,4.69-.46,1.18-.91,2.36-1.42,3.52l.05-.23c-2.29,4-3.34,5.85-4.22,7.67-.47.9-.89,1.79-1.49,2.88-.63,1.08-1.41,2.39-2.57,4.12,3.02-3.79-.05,1.35,2.19-1.54-.78,1.17-1.53,2.25-2.28,3.17-.73.93-1.37,1.76-1.94,2.42-1.18,1.29-1.94,2.01-2.11,1.88.82-1.03,1.44-1.81,1.89-2.41.43-.62.72-1.04.9-1.34.38-.59.36-.67.33-.72s-.08-.09.22-.61c.15-.26.39-.64.77-1.2.36-.57.83-1.34,1.46-2.36-1.03,1.2.81-2.2-2.51,2.41-3.69,5.26,1.48-1.29-2.38,3.83-.28.27-.56.54-.46.33-1.74,2.41-2.3,2.56-4.58,5.33l.52-.67c-3.26,2.96-3.21,3.61-6.2,5.93,1.34-.77-1.73,1.88-3.39,3.49,1.52-1.15,2.7-2.04,4.24-3.21.76-.61,1.61-1.31,2.61-2.18.98-.9,2.14-1.96,3.46-3.35.45-.85-.02-.53,2.02-2.91-1.11,1.22-2.22,2.46-3.38,3.63.74-.77,1.23-1.44,1.87-2.18,1.14-1.11,2.19-2.3,3.25-3.49-1.87,2.37-2.37,3.03-2.55,3.39-.17.36-.04.41-.83,1.45-3.97,3.89-3.2,3.29-5.8,5.6.01-.25-2.08,1.41-4.8,3.5-2.73,2.1-6.05,4.65-8.38,6.57.71-.61,1.64-1.41,2.13-1.84,1.62-1.52.99-1.08-.07-.27-1.04.83-2.52,2.04-2.6,2.07-.73.78-1.5,1.52-2.2,2.31.4-.44.94-1.08-.06-.16-.74.77-1.28,1.36-1.7,1.85-.4.51-.69.92-.98,1.33-.3.41-.59.81-.97,1.33-.36.53-.81,1.16-1.45,2-.36.14,1.63-2.88-.09-.86-.18.15-.44.39-.8.74-.34.36-.74.85-1.23,1.46-.49.61-1.07,1.35-1.63,2.29-.61.91-1.18,2.03-1.82,3.32-.12.4-.72,1.75-1.38,3.33.08-.22.18-.51.22-.61-.54,1.14-1.11,2.28-1.6,3.46.8-3.19,2.63-6.01,3.98-8.99l-.13-.4c1.26-2.23,3.23-5.1,4.13-6.45-.61.77-1.11,1.38-1.54,1.93-.39.58-.73,1.09-1.08,1.6-.7,1.03-1.37,2.15-2.42,4.08-.22.23-.04-.38.3-1.05.33-.68.75-1.46.86-1.66l-.18.66c1.5-2.15,2.57-3.79,3.83-5.5,1.24-1.72,2.7-3.51,5.08-5.78.74-.66.31-.24.19-.04,3.66-3.88,8.09-6.77,11.76-10.45l-1.18,1.22c2.61-2.38,7.68-7.11,11.86-12.56l-.06-.12c-.56.52,1.15-1.39,2.01-2.46h0c2.01-2.77,3.76-5.56,5.12-7.88-.51.69-1.18,1.57-1.92,2.58-.26.46-1.23,2.02-2.21,3.27-.94,1.28-1.73,2.38-1.33,2.14-.98,1.07-2.19,2.51-3.36,3.88-1.2,1.33-2.32,2.61-3.14,3.3,2.91-2.58-1.68,2.14-2.09,2.71-1.08.76-4.31,3.85-4.11,3.3-.64.44,1.58-1.1,2.69-2.34,1.41-1.48.01-.24-1.33.86-1.35,1.1-2.61,2.11-.77.36-2.36,2.2-5.27,4.57-8.16,7.06-2.89,2.48-5.72,5.15-7.91,7.76.85-.94,1.81-1.77,2.72-2.66-.53.53-1.25,1.25-2.03,2.03-.73.83-1.54,1.7-2.26,2.56-.7.87-1.35,1.68-1.84,2.3-.47.64-.79,1.08-.9,1.17,1.23-1.89,2.91-3.92,4.81-6.09-.06-.16-1.24,1.12-2.39,2.5-1.11,1.41-2.21,2.9-2.36,3-1.5,2.38-2.75,4.88-3.86,7.43.58-1.07,1.12-2.16,1.76-3.19-.51,1.03-1.69,3.2-2.92,5.83-1.15,2.65-2.35,5.76-3.05,8.5.35-3.27,2.44-8.21,5.18-13.5,2.04-3.84-1.74,2.11.26-1.5-.33.43-.82,1.24-1.27,2.11-.22.44-.45.88-.66,1.29-.18.42-.34.81-.46,1.12l-.77,1.45c.6-1.76,1.78-4.54,3.48-7.32,1.71-2.76,3.73-5.63,5.53-7.76-.29.39-.54.74-.61.89,2.93-3.14,6.13-6.03,9.18-8.73-1.73,1.3-2.32,1.94-3.22,2.79-.19.02,2.71-2.57,3.76-3.56-2.98,2.35-.69.27-2.57,1.79,1.82-1.71,3.39-2.95,5.7-4.82,1.28-.87-.85.97-.48.93,2.27-2.05,3.68-2.55,6.82-5.67-2.21,1.94-2.02,1.57-1.04.6.93-1.01,2.61-2.67,3.25-3.44l-.7.67c1.15-1.47,2.27-2.54,3.27-3.34-1.54,1.81-3.29,3.32-2.63,3.04.56-.56,1.11-1.11,1.69-1.69.56-.58,1.11-1.22,1.69-1.89l-.98,1.3c1.79-1.89,3.5-3.87,5.11-5.91.58-1.12,1.65-2.89,1.99-3.97.61-.71,1.25-1.62,1.86-2.54.61-.92,1.12-1.9,1.58-2.66l-.37.74c1.02-1.39,2.44-3.79,3.57-5.93,1.13-2.15,1.98-4.05,2.03-4.38.62-1.07-1.01,2.97-2.04,5.26-.49,1.15-.78,1.89-.41,1.38.35-.52,1.45-2.25,3.35-6.2,2.84-6.03,1.21-4.01,2.51-7.56,0,0-.02.22.15-.11.28-.67.48-1.2.64-1.64.04-.12.08-.23.12-.34.05-.16.1-.31.15-.46.09-.3.18-.58.26-.85.17-.56.32-1.09.51-1.72.1-.32.2-.66.31-1.04.12-.41.24-.86.38-1.37-.47,1.47-1.08,2.98-1.59,4.42-.21.58-.41,1.12-.57,1.58-.13.35-.23.65-.28.84.02-.23.17-.69.4-1.29.34-.94.76-2.1,1.2-3.33.92-2.63,1.87-5.78,2.34-8.04-.3,1.48-.27,1.57-.08.99.09-.29.23-.75.39-1.3.08-.28.16-.58.25-.89.08-.34.17-.69.25-1.05.68-2.83,1.39-5.95.92-3.47.81-3.19,1.62-6.57,2.33-9.81l.31.38.15.18.11.08c.15.1.3.19.45.29.02.02.03,0,.06.06l.08.23.16.46c.11.3.21.6.32.89.21.58.42,1.15.62,1.7.39,1.06.76,2.05,1.09,2.94.33.85.62,1.61.87,2.25.4,1.6.73,2.98,1.1,4.3.36,1.33.78,2.52,1.14,4.09.19.76.39,1.54.6,2.37.2.84.46,1.68.6,2.72.17,1.02.34,2.09.53,3.24.09.58.18,1.17.28,1.78.06.36.05.47.08.7.02.2.03.41.05.62-.03-.26-.06-.57-.1-.91l-.02-.13-.04-.2c-.02-.14-.05-.28-.07-.42-.05-.29-.1-.58-.15-.88-.21-1.2-.42-2.48-.58-3.62-.64-2.8-.19-.12.12,2.14.34,2.27.59,4.04-.25-.25.35,1.84.17.05-.19-1.86-.68-3.25-1.51-5.92-1.4-4.97l.74,3.82c.25,1.24.36,2.61.54,3.88l-.49-2.59.37,2.89.18,1.42.09.7c.02.22.03.36.04.54.07,1.37.19,2.74.23,4.11.07.22.11-.56.1-.96.35,4.76.44,9.88.17,14.83-.26,4.95-.89,9.74-1.7,13.83.25.84-.6,5.95-2.33,11.52-1.64,5.6-4.27,11.52-5.5,14.71.55-1.77.57-2.84-.06-1.9.3-.69.69-1.77,1.2-3.06.45-1.31.98-2.85,1.64-4.41.39-.43,1.82-4.4,1.12-1.77,2.92-8.98-.76,1.09-.17-1.65-1.58,4.96-3.18,8.77-4.59,12.16-.75,1.67-1.49,3.22-2.19,4.73-.76,1.48-1.53,2.91-2.33,4.37l-.17.09c-.86,1.42-1.69,2.87-2.58,4.28,1.17-1.67,1.79-2.43,1.78-2.2-.04.21-.65,1.46-2.28,3.54l.35-.54c-1.84,2.39-5.51,7.47-8.75,10.9-.64.86-1.32,1.68-1.99,2.51-3.35,3.34-3.91,3.04-5.23,3.85-2.25,2.01-4.14,3.65-5.86,5.1l-2.58-3.78c1.28-.9,2.46-1.73,3.63-2.55,1.14-.85,2.26-1.69,3.44-2.58.51-.26,1.42-.85,2.44-1.53,1.02-.68,2.16-1.43,3.06-2.09,1.82-1.29,2.86-1.98.71-.17,2.5-1.99,3.21-3.13,4.49-4.46,1.23-1.4,3-2.98,7.13-6.53-.62.71-1.23,1.43-1.89,2.11,3.81-3.55,8.03-8.25,11.41-12.69,3.39-4.44,6.02-8.55,7.28-10.57-.65,1.84,1.21-.81,3.33-4.17.97-1.73,2.09-3.59,2.95-5.15.83-1.58,1.53-2.82,1.89-3.17-.19.2.11-.6.45-1.53.31-.95.67-2.02.73-2.3.37-.78,1.02-2.08,1.33-3.59-1.52,3.8.28-2.93-2.16,4.46.96-3.86,2.18-8.72,4.51-17.14l.27.21c-.63,2.23-1.3,4.42-1.98,6.6.21-.3.06.4-.18,1.35-.26.94-.63,2.12-.8,2.82,1.06-2.99,1.51-4.43,1.77-5.02.26-.6.28-.38.31-.18.02.21.04.4.28-.24.25-.64.71-2.12,1.57-5.31.14-1.29,0-.46.83-3.81-.42,1.57-.28,1.91.41-.61l.42-2.49c.91-2.17.44-.29-.02,1.66-.46,1.95-.97,3.97-.26,2.12-1.06,5.02-3.42,13.49-2.59,12.04,1.27-3.96,1.6-5.82,1.92-7.72.34-1.9.66-3.85,1.93-8.04l.43-.85c.73-3,.61-3.56.97-5.23.14-.12.45-.84,1.09-2.73.37-1.27.71-2.43,1.02-3.52.17-.55.32-1.09.49-1.61.19-.52.38-1.02.56-1.53.37-1.01.73-2.02,1.1-3.06.39-1.03.87-2.07,1.32-3.22-1.49,2.92-2.31,5.1-3.08,6.81-.76,1.71-1.21,3.03-1.76,4.34-.56,1.31-1.01,2.66-1.6,4.47-.62,1.81-1.23,4.1-2.07,7.3.21-1.01.93-3.78,1.62-6.37.71-2.59,1.37-5.02,1.3-5.36l.26.23c.68-2.08,1.33-4.18,2.27-6.34.47-1.08.86-2.22,1.47-3.34.58-1.13,1.19-2.3,1.85-3.52l-1.39,3.1c.4-.83.79-1.62,1.17-2.38.39-.76.75-1.49,1.2-2.14.86-1.33,1.66-2.57,2.44-3.77.79-1.19,1.67-2.25,2.45-3.4.8-1.12,1.52-2.32,2.37-3.49-.33.39-.64.76-.94,1.12-.27.38-.52.73-.77,1.07-.48.68-.89,1.28-1.24,1.81.52-.79,1.08-1.62,1.68-2.48.59-.86,1.31-1.65,1.98-2.5.69-.83,1.39-1.67,2.08-2.5.64-.8,1.54-1.71,2.27-2.4,1.93-2.1,3.78-4.01,5.5-6.04.09.18,3.51-3.49,2.05-1.54,2.02-2.02,3.31-3.68,4.3-5.17,1-1.48,1.73-2.77,2.57-4.17.87-1.16,1.08-1.51,1.02-1.3-.06.2-.48.92-1.02,1.78-.52.88-1.22,1.89-1.75,2.74-.56.84-.98,1.5-.98,1.68,2.52-3.13,4.74-6.64,6.34-9.96.8-1.67,1.48-3.28,2.02-4.74.14-.39.27-.76.41-1.13.19-.57.38-1.11.55-1.64.35-1.07.63-2.1.89-3.06-.85,2.61-1.4,3.8-1.42,3.64.06-.08.22-.47.44-1.04.21-.58.46-1.37.74-2.23.53-1.77,1.09-3.97,1.44-5.8l.37-2.97c1.3-6.18,1.15-4.61.25.88.56-2.75,1.12-6.23,1.67-9.63l.34.3.27.2c.2.18.32.2.47.31.01-.01.05.06.08.14l.1.21.19.43.38.87c.25.59.5,1.19.74,1.8-.24-.48-.48-.97-.73-1.47l-.37-.76-.19-.39-.09-.19c-.03-.07-.06-.14-.08-.12-.15-.05-.26-.03-.45-.17l-.26-.16-.32-.29c-.64,3.64-1.35,7.33-1.96,10.35-.58,3.1-1.19,5.21-1.57,6.71.23-.86.45-1.67.67-2.45.19-.83.38-1.62.55-2.38.33-1.63.63-3.11.91-4.47.55-2.64,1.01-4.86,1.46-7.03l.34.37.28.24c.1.09.17.13.25.16l.11.05.06.02s.07.15.1.21c.55,1.27,1.13,2.62,1.79,4.15,1.24,3,2.8,6.17,4.72,11.48,0,.28-1.17-2.48,0,.89.37.97.57,1.7.75,2.27.18.57.32.98.43,1.27.21.57.29.64.33.54.08-.19-.04-1.12.44.12-.5-1.58-.86-2.9-1.28-4.14-.44-1.25-.82-2.36-1.16-3.4-.75-2.06-1.37-3.79-2.07-5.72.26.44.51.91.78,1.38.04.2.47,1.28.94,2.47.12.3.24.6.36.9.11.32.21.63.31.93.2.59.36,1.11.46,1.44l.65.8c-.12-.05-.07.36.1,1.07.17.71.34,1.66.62,2.78.14.55.29,1.15.44,1.77.1.46.19.94.3,1.43.11.48.22.97.33,1.46.1.49.2.97.3,1.44-.2-1.94-.35-2.63-.33-3,0-.37.11-.39.2-.96.83,2.59,1,4.14,1.16,5.76.13,1.63.3,3.31.65,6.38-.1-.47-.66-5.79-.37-1.17.11,1.91.16,2.74.26,3.42.1.68.16,1.2.17,2.5-.11-1.47-.23-2.01-.39-2.58-.17-.57-.28-1.17-.56-2.71-.23-3.36-.38-4.02-.47-4.67-.11-.65-.17-1.29-.87-4.48l.38,2.74.26,2.75c-.39-2.8-.71-3.78-.87-4.13-.17-.35-.22-.07-.33-.28.67,4.73.92,6.5,1.11,7.88.11.69.24,1.27.3,2.07.03.4.06.86.08,1.41,0,.55-.02,1.19-.05,1.97.01,1.51.14.05.17-1.2.03-.63.03-1.2.05-1.32,0-.12.08.21.09,1.39-.13,2.93-.17,3.26-.13,3.7,0,.43.14.96-.38,4.25l.06-1.12c-.52,1.96-.76,3.97-1.35,6.17-.3,1.22.16.61.35.94.17.32.12,1.63-1.49,6.47.08-.5.08-.69.05-.71.19-3.43.35-6.87.25-10.31-1.21,5.02-3,10.2-4.97,15.54-1.97,5.33-4.13,10.77-6,16.32-.66,1.24-.15-.79.54-3.05.69-2.25,1.54-4.72,1.31-4.42l1.94-5c.08.35-3.76,10.59-1.75,6.17,3.03-8.96,4.97-12.87,7.14-21.63-.64,1.27-1.5,4.1-2.55,7.27-1.05,3.17-2.3,6.68-3.49,9.36.88-2.29,1.54-4.26,2.15-6.18-1.91,5.15-4.11,10.6-6.12,16.53l-.31,1.38c1.32-4.01,2.38-6.73,2.51-7.08-1.94,5.24-2.98,9.86-2.7,10.32l.29-.94c-.15.65-.3,1.31-.43,1.96-.37,1.25-.71,2.5-1.03,3.76Zm-95.93,95.35c.26-.22.45-.41.58-.57-.14.16.07.06-.58.57ZM127.76,33c.49-.8.97-1.62,1.4-2.46.46-.83.9-1.66,1.31-2.51.41-.85.82-1.7,1.19-2.56.19-.43.38-.86.56-1.29l.5-1.22c1.13-2.85,1.99-5.66,2.6-8.43-.6,2.07-1.42,4.31-2.23,6.18-.41.94-.8,1.77-1.14,2.45-.36.7-.63,1.21-.8,1.46-.35.5-.23.03.44-1.84.34-.99.83-2.35,1.4-4.22.56-1.86,1.19-4.3,1.83-7.26l.27-1.61.03-.11s-.02.04-.03.08c-.32,1.39-.8,3.53-1.42,5.89-.61,2.37-1.39,4.84-2.25,7.15-.53,1.79-1.77,5.48-3.22,8.63-.73,1.57-1.44,3.02-2,4.05-.53,1.05-.92,1.68-.87,1.67.94-.96,1.82-2.71,3.08-4.77l-.63.73Zm-3.95,3.76c-2.54,3.32-1.88,2.64-2.16,3.25.91-1.17,1.79-2.35,2.6-3.57-.35.43-.55.63-.44.32Zm-1.88,3.15c.31-.36.54-.69.69-.84-.23.28-.45.57-.69.84Zm18.42,14.88c.05-.18.07-.25.12-.42-.31.95-.63,1.89-.96,2.88.15-.38.41-1.1.84-2.47Zm2.51-8.21c-.03-.35-.06-.69-.11-1.04-.15.92-.34,1.85-.56,2.79.19-.29.38-.59.66-1.76Zm-1.99-28.44c-.43-.87-1.29-2.75-2.03-4.41-.8-1.63-1.47-2.99-1.57-2.75-.16-.15.34,1.12.88,2.5.64,1.48,1.2,3.12,1.82,4.83.05,0,.2.28.43.82-.52-1.81-.98-3.09-.56-2.7.39,1.31.6,2.21.85,2.89.23.68.47,1.17.69,1.69.21.51.45,1.05.72,1.8.13.37.29.83.42,1.29.11.44.23.95.35,1.55.15.36.17.21.1-.24-.03-.23-.09-.53-.16-.88-.04-.18-.07-.36-.11-.56-.04-.2-.12-.46-.18-.7-.27-.98-.56-2.06-.87-3-.33-.95-.62-1.74-.78-2.13ZM54.98,90.13c-.09.11-.37.49-.76,1.01.46-1.01.87-2.05,1.3-3.08,2.6-5.43,4.73-9.3,6.17-15.65.44-1.25.76-2.09,1.04-2.64.26-.57.48-.8.66-1.17-.33,1.12-.62,2.17-.91,3.02-1,3.92-1.69,5.96-2.27,7.45-.55,1.45-1.01,2.28-1.39,2.98-.82,1.4-1.41,2.49-3.84,8.07Zm14.38,10.37c.02-.61-.04-.84-.04-.84-.07,6.66-.92,12.72-2.05,17.93-.14.65-.28,1.29-.42,1.92-.16.62-.32,1.23-.48,1.83-.31,1.2-.62,2.34-.99,3.4-.7,2.15-1.31,4.1-2.03,5.76.19-.3.5-.9.88-1.67.35-.78.72-1.75,1.12-2.77.39-1.02.83-2.09,1.16-3.1.33-1.02.64-1.96.88-2.69l-.45,2.73c-.23.53-.5,1.04-.76,1.56-.42,1.53-.82,3.08-1.26,4.61.34-.59.78-1.81,1.28-3.18.25-.69.51-1.41.77-2.11.24-.71.47-1.4.68-2.01,0-.12.51-2.19.92-4.54.24-1.17.42-2.41.58-3.51.16-1.09.29-2.03.33-2.61-.2,1.08-.49,2.14-.74,3.21-.24,1.07-.53,2.13-.84,3.18.28-.84.86-3.4,1.35-6.19.49-2.79.84-5.81.98-7.53-.06-.04-.35,1.41-.59,2.96-.21,1.56-.51,3.2-.39,3.6-.17.33.02-1.2.14-2.27.07-1.08.11-1.71-.32.41.14-1.27.26-2.73.46-4.26.12-1.53.31-3.14.41-4.7.23-3.13.34-6.11.36-8l.38-.65c.04-2.08-.13-2.78-.3-3.57-.08-.4-.16-.81-.23-1.44-.06-.63-.12-1.47-.21-2.7.19,1.5.27,2.19.33,2.45.06.26.1.09.14-.12.08-.42.13-1,.31,1.42.02-.78.13-.79.18-1.22.06-.43.06-1.27-.23-3.69-.12-.51-.2-.92-.3-1.4-.11-.5-.19-.96-.26-1.39-.14-.86-.21-1.63-.29-2.42-.06-.8-.2-1.55-.37-2.39-.17-.83-.4-1.72-.7-2.65-.3-1.54-.07-.91.09-.58.15.34.23.33-.53-2.6-.47-1.53-.84-2.59-1.14-3.32-.28-.73-.47-1.15-.6-1.37-.26-.43-.29-.08-.4.19.8,2.89,1.3,4.16,1.73,5.44.22.63.45,1.24.69,2.01.23.78.44,1.77.69,3.05l-.64-2.26c-.21-.73-.46-1.4-.68-2.08l-.66-1.98-.7-1.87c.43,1.69.74,2.92,1,3.97-.42-1.71-.94-2.97-1.31-3.9-.21-.56-.44-.92-.65-1.32,1.45,4.57,2.34,8.79,2.32,9.72l-.26-.34c.08.9.26,1.89.47,2.81.19.92.37,1.8.53,2.37.07.51.17.98.23,1.52.07.54.14,1.07.2,1.59.13,1.04.28,2.02.34,2.9.15,1.76.26,3.1.13,3.58-.06-.55-.16-1.1-.25-1.65.13,1.34.11,2.39.16,3.31.04.92.07,1.71.05,2.55,0,.84-.01,1.72-.02,2.81-.06,1.09-.12,2.4-.21,4.1Zm17.86,2.17c-.4.74-.79,1.51-1.23,2.47-.43.96-.91,2.11-1.54,3.61-.61,1.5-1.29,3.37-2.27,5.72-.9,2.38-2.15,5.2-3.75,8.67.16-.37.35-.72.49-1.1-.95,1.68-1.84,3.35-2.68,5.07-.88,1.7-1.85,3.36-2.79,5.11-1.92,3.47-4.21,7-7.3,10.53,1.3-1.87,1.9-2.76,2.48-3.74.59-.97,1.17-2.02,2.31-4.26-.84,1.38-1.7,2.75-2.61,4.09.49-1.3-2.17,2.74-4.48,5.45l1.63-2.71c.69-.81,1.9-2.29,2.85-3.61.98-1.3,1.68-2.44,1.61-2.39-.32.51.84-.9,2.29-3.01.7-1.07,1.49-2.3,2.24-3.51.37-.61.75-1.21,1.08-1.8.31-.6.59-1.17.84-1.69-.32.38-5.27,8.76-3.45,4.79-.88,1.7-1.44,2.62-2.09,3.5-.62.9-1.29,1.8-2.39,3.47,2.01-3.27.22-1,1.62-3.48-1.16,1.83-2.38,3.63-3.66,5.39-.08.04,1.28-1.9,2.18-3.37.9-1.47,1.4-2.43-.25-.34-.66,1.12-2.07,3.05-3.33,4.7-1.27,1.64-2.36,3.03-2.28,3.18l-.18.06c-1.6,1.83-1.87,2.31-2.25,2.88-.39.55-.83,1.27-2.99,3.35.06.15.97-.56,2.38-2.19,1.17-1.4,1.21-1.74,3.57-4.63,1.28-1.12-2.93,3.43-.93,1.72.51-.41,2.05-2.35,3.25-3.92,1.19-1.57,2.07-2.74,1.45-1.5-1,1.29-2.01,2.57-3.07,3.82.19.32-2.14,3.01-1.87,3.1-1.9,2.34-4.09,4.18-6.1,6.52-.38.52-.11.46-.21.7-.11.23-.55.81-2.5,2.47-1.6,1.21-4.65,3.69-7.78,6.16-3.16,2.42-6.42,4.81-8.24,6.05-1.03.76-2.05,1.55-3.1,2.3.4,0,6.12-4.11,4.21-2.51-1.67,1.12-3.29,2.31-5,3.37l.33-.35c-1.1.66-2.17,1.39-3.2,2.09l.69,1.01c.54-.47,1.06-.92,1.56-1.35-.38.4-.95.88-1.54,1.39l-.74-1.08c1.57-1.07,3.28-2.16,2.63-2.04-1.36.8-2.1,1.2-2.87,1.64l1.26,1.84c.55-.41,1.15-.85,2.03-1.61-.43.39-.8.72-.71.71,4.6-3.59,4.02-3.94,5.04-4.97,1-1.06,1.19-1.39.96-1.24-.23.14-.91.72-1.72,1.39-1.59,1.36-3.75,3.03-3.57,2.66,4.28-3.66,8.27-7.65,11.87-11.96-.83,1.18-1.77,2.3-1.29,2,1.46-1.48,1.49-1.48,1.68-1.63.18-.16.5-.46,2.34-2.73-.31.02.78-1.46,2.18-3.4.68-.99,1.44-2.09,2.17-3.16.68-1.1,1.33-2.17,1.84-3.07.61-.75.94-1.22.88-1.04-.05.19-.57.98-1.71,2.75.24-.13,1.15-1.37,2.05-2.83.87-1.49,1.85-3.13,2.33-4.02.5-1.06,1.34-2.85,1.88-3.99-.94,1.41-.67.74.7-2.62l.03-.22c-.63,1.34-1.36,2.87-2.24,4.39-.42.77-.85,1.55-1.29,2.34-.46.77-.93,1.53-1.38,2.28-.46.75-.88,1.5-1.34,2.19-.45.69-.88,1.35-1.28,1.97-.78,1.26-1.49,2.31-1.97,3.11l.49-.94c-1.05,1.35-2.06,2.83-3.15,4.23-1.04,1.43-2.12,2.81-3.15,4.08-1.01,1.29-2.04,2.41-2.92,3.38-.91.94-1.72,1.69-2.37,2.15.06-.36-1.02.93-1.16.61-1.14,1.24-2.32,2.43-3.51,3.62l.68-.81c-1.81,1.66-3.68,3.27-5.62,4.79l1,1.47,1.01-.64-.16.17c3.38-2.41,5.93-4.4,7.92-6.04-.07-.12-.31,0,.74-.88,1.08-.85,1.92-1.46,2.67-2.02,0,0,0,0,0,0h0c1.71-1.25,2.97-1.94,5.04-3.54-2.06,1.72-4.19,3.36-6.34,4.96-.4.56.33.41,3.58-1.87-1.28.99-1.71,1.55-.1.35.17-.15,4.06-3.42,2.43-2.35,2.96-2.44,6.86-5.63,10.8-9.53,3.93-3.89,7.95-8.46,11.16-13.35-2.38,3.46-1.33,2.15-.33.93.95-1.25,1.87-2.38-.87,1.4,2.12-2.49,2.82-3.73,3.51-4.97.68-1.25,1.34-2.54,3.03-5.39.4-.42-1.82,3.12-2.48,4.52,6.12-9.25,8.68-16.55,12.11-26.58l.42-.34c.62-1.92,1.17-4.09,1.8-6.33Zm5.48-20.17c.34-.96.67-1.92,1.01-2.89.17-.49.34-.97.51-1.46.2-.48.4-.96.6-1.44-.08.19-.16.36-.25.55.76-1.88,1.41-3.82,2.33-5.64-.95,1.62-1.63,3.03-1.91,3.38-.25.36-.16-.36.93-2.77-.09.45.75-.86-.03.8.43-.77,1-1.77,1.58-2.8.57-1.05,1.15-2.13,1.74-3.02,1.11-1.81,1.8-3.06,1.08-2.32-1.58,3.01-1.92,3.27-2.16,3.38-.23.11-.4.06-1.49,2.52.98-2.73,2.67-5.07,3.96-7.47-.64,1.28-.43,1.21.22.38.64-.83,1.9-2.31,3.16-4,.26-.38.62-.93,1.08-1.55.49-.6,1.06-1.29,1.64-2,1.2-1.42,2.39-3.03,3.47-4.14-.49.29-.28-.06-.41-.06-.11,0-.64.38-2.23,2.3.56-.72,1.25-1.68,2.23-2.64.96-.96,2.07-1.96,3.26-2.99-.87.89-2.45,2.43-2.27,2.4,1.66-1.23,3.39-2.86,4.41-3.71.74-.75,1.48-1.51,2.18-2.26-.23.2-.44.37-.6.48.76-.88,1.48-1.79,2.2-2.7-3.05,3.48-1.56,1.47-1.62,1.33.15.32,2.05-2.15,3.04-3.37-.83.8-1.65,1.59-2.51,2.34.5-.66,1.5-1.71,2.27-2.56.75-.86,1.29-1.49.89-1.26-2.32,2.77-4.06,4.56-5.76,6.29-1.7,1.74-3.4,3.31-5.8,5.71.72-.59,1.44-1.15,2.15-1.7-1.33,1.32-2.23,2.18-2.91,2.88-.63.69-1.06,1.12-1.52,1.57-.46.45-.95.92-1.65,1.69-.71.77-1.67,1.81-2.88,3.58-.47.76-1.17,1.79-1.95,2.92-.77,1.14-1.49,2.46-2.22,3.65-.35.6-.69,1.18-1,1.71-.29.54-.52,1.06-.72,1.49-.39.87-.6,1.45-.52,1.54.18-.51-.53.62-1.41,2.22-.77,1.65-1.75,3.77-2.18,5.16-.34,1.6-1.4,4.65-2.01,7.03-.68,2.36-1.06,4-.56,2.62.37-1.25.81-2.72,1.23-4.12.41-1.41.96-2.71,1.44-3.65-.56,1.59-1.12,3.18-1.58,4.81.41-1.03.81-2.06,1.29-3.06-.67,1.58-.39,1.5.21.88Zm47.17-48.51c0,.05,0,.12.01.18,0-.07-.01-.14-.02-.2v.02Z"></path>
      <path class="cls-1" d="m8.09,147.18c-.31.65-.77,1.8-1.16,2.69-.38.9-.56,1.59-.33,1.31-.07,0,.04-.38.24-.89.23-.51.52-1.17.8-1.78.53-1.22,1.09-2.16.46-1.33Z"></path>
      <path class="cls-1" d="m6.07,150.92c-.04.26.12.13-.46,1.61l.79-2.04c.27-.68.59-1.33.89-2-.4.81-.86,1.6-1.21,2.44Z"></path>
      <path class="cls-1" d="m2.84,154.55c-.31,1.13-.46,2.08-.71,3.16-.28,1.08-.53,2.33-.91,4.12-.45.61-.18-.86.18-2.71.45-1.83,1.02-4.02,1.05-4.89-1.09,3.21-1.45,5.4-1.73,7.43-.17,1.01-.24,2-.35,3.07-.11,1.07-.26,2.22-.36,3.59.07-.33.15-.8.23-1.36.11-.56.23-1.2.37-1.9.13-.7.27-1.46.41-2.23.17-.77.35-1.55.52-2.32.68-3.07,1.49-5.79,1.31-5.95Z"></path>
      <path class="cls-1" d="m3.09,151.45c-.44,1.19-.74,2.42-1.12,3.62l.15-.34c.37-1.2.68-2.43,1.14-3.61l-.17.34Z"></path>
      <path class="cls-1" d="m57.65,93c.35-.2,1.2-2.41,1.7-3.56-.46.91-1.11,2.19-1.7,3.56Z"></path>
      <path class="cls-1" d="m111.61,165.12c-4.55-.49-9.1-1.14-13.74-1.78-2.32-.32-4.67-.62-7.06-.86l-1.8-.16-1.84-.1-1.84-.09c-.61,0-1.23,0-1.84.01,8.62-.06,15.93,1.7,28.13,2.98Z"></path>
      <path class="cls-1" d="m63.66,122.04c.46-1.78.86-3.31,1.12-4.74.14-.71.28-1.39.41-2.06.11-.67.21-1.33.32-1.98.1-.66.21-1.31.32-1.99.09-.68.18-1.37.27-2.1.22-1.45.36-3.04.58-4.88-.77,4.83-1.28,8.01-1.76,11.01-.58,2.97-1.07,5.81-2.63,9.63.45-.96.95-1.9,1.36-2.88Z"></path>
      <path class="cls-1" d="m62.85,119.14c.34-.53.07.84-.23,2.23-.28,1.4-.72,2.77-.4,2.31.38-1.16.56-1.9.66-2.4.11-.5.14-.78.18-1.03.05-.52.18-.96.71-3.11-.3.67-.58,1.34-.91,2Z"></path>
      <polygon class="cls-1" points="72.25 86.32 72.6 88.63 72.41 86.76 72.25 86.32"></polygon>
      <polygon class="cls-1" points="49.3 149 49.7 148.29 47.5 151.18 49.3 149"></polygon>
      <path class="cls-1" d="m50.06,147.58l-.36.72.36-.72Z"></path>
      <path class="cls-1" d="m73.22,89.28c0-1.16-.08-2.33-.12-3.49-.1-.57-.18-1.14-.31-1.71.17,1.73.33,3.46.43,5.2Z"></path>
      <path class="cls-1" d="m67.95,119.24l.61-3c-.12.59-1.27,4.61-.61,3Z"></path>
      <path class="cls-1" d="m34.63,165.56c-.83.84-1.7,1.65-2.56,2.45l.3-.21c.87-.8,1.71-1.62,2.55-2.45l-.28.21Z"></path>
      <path class="cls-1" d="m60.19,141.97c.62-.88-.08.5-.65,1.62-.62,1.1-1.11,1.95.11.11,1.78-3.49.91-2.15.53-1.73Z"></path>
      <path class="cls-1" d="m32,172.32c.42-.26.86-.55,1.27-.84-.5.33-.92.61-1.27.84Z"></path>
      <path class="cls-1" d="m32,172.32c-.45.27-.9.54-1.34.8l.38.55c.84-.62,1.62-1.19,2.15-1.71-1,.73-1.61,1.16-2.2,1.65l-.29-.43c.39-.26.79-.53,1.3-.87Z"></path>
      <path class="cls-1" d="m46.94,161.77l-1.14.89c1.06-1.04.54-.57-.44.32-1.21.94-1.09.96-1.2,1.12-.22.21-.44.43-.68.66.35-.32.67-.6.94-.85,1.91-1.42,3-2.38,2.52-2.15Z"></path>
      <path class="cls-1" d="m89.36,108.06c-.91,2.61-1.49,4.25-1.86,5.19-.4.94-.57,1.18-.62,1-.96,2.45-1.28,3.52-1.49,4.36-.25.82-.38,1.41-.98,2.9,1.23-2.75,1.83-4.44,2.53-6.26.74-1.81,1.35-3.8,2.42-7.18Z"></path>
      <path class="cls-1" d="m84.41,121.51c-.27.62-.52,1.21-.83,1.93.36-.8.61-1.39.83-1.93Z"></path>
      <polygon class="cls-1" points="33.79 174.65 32.65 175.76 29.31 170.87 30.71 169.78 29.72 170.46 29.28 170.82 32.68 175.8 33.79 174.65"></polygon>
      <path class="cls-1" d="m91.7,100.32c-.28.96-.69,2.51-.99,3.26.16.33,1.26-4.22.99-3.26Z"></path>
      <path class="cls-1" d="m80.94,118.78c-.17.22-.58,1.13-1.03,2.14-.22.5-.45,1.03-.67,1.51-.25.47-.47.89-.63,1.2.23-.44.48-.85.72-1.25.22-.41.44-.8.64-1.19.41-.78.77-1.54.97-2.41Z"></path>
      <path class="cls-1" d="m95.03,85.47c-.31.92-.9,2.29-.88,1.62-.32,1.38-.53,3.3.88-1.62Z"></path>
      <path class="cls-1" d="m84.43,109.61l-.31.7-.51,1.77-.58,1.75c.52-1.39.97-2.8,1.4-4.22Z"></path>
      <path class="cls-1" d="m76.68,120.43c-1.38,3.8,3.15-5.58.56.87,3.85-8.11-.6.48,2.05-5.57-1.6,3.53-2.69,5.1-2.62,4.7Z"></path>
      <path class="cls-1" d="m79.3,115.73c.21-.52.43-1.09.67-1.71-.27.68-.48,1.23-.67,1.71Z"></path>
      <path class="cls-1" d="m101.33,62.1c-.33.51-.55.85-.72,1.2.22-.43.48-.79.72-1.2Z"></path>
      <path class="cls-1" d="m85.5,95.37l-1.25,6.05c.42-2.02,1.32-5.51,2.04-8.48.73-2.96,1.35-5.36,1.06-5.1-1.05,3.26-1.99,7.21-2.27,8.86l.42-1.33Z"></path>
      <path class="cls-1" d="m128.25,39.11c-.5.81-1.01,1.62-1.55,2.4.75-.93,1.43-1.91,2.13-2.87-.64.8.19-.87-.58.47Z"></path>
      <path class="cls-1" d="m129.22,38.07c-.13.19-.25.38-.39.57.1-.12.23-.3.39-.57Z"></path>
      <path class="cls-1" d="m95.6,72.41c-.9,1.8-1.48,3.31-2.16,5.01.39-.66,2.4-5.25,2.16-5.01Z"></path>
      <polygon class="cls-1" points="135.66 23.7 135.53 24.18 135.46 24.41 135.08 25.4 135.48 24.4 135.56 24.16 135.72 23.66 135.66 23.7"></polygon>
      <path class="cls-1" d="m136.68,24.16l-.02.16c.06.02.12.06.2.16,0-.06.02-.09.03-.15-.08-.09-.15-.15-.21-.18Z"></path>
      <path class="cls-1" d="m127.7,24.38c-1.17,2.6-1.96,4.69-1.53,4.07.86-1.63,1.64-3.32,2.35-5.03-.86,1.17-.56,1.44-2.06,4.29.45-1.1.86-2.22,1.24-3.34Z"></path>
      <path class="cls-1" d="m86.42,146.57c.54-.34,2.2-1.17,3.76-1.91,1.57-.73,3-1.45,3.2-1.43-.68.47-3.59,2.08-1.68,1.23,1.34-.92,2.71-1.79,3.99-2.77,2.84-1.47,1.88-.72-.13.63-2.01,1.35-5.21,3.12-6.63,3.89,1.5-.71,2.72-1.31,3.78-1.92,1.06-.6,2.02-1.12,2.93-1.71,1.85-1.15,3.73-2.35,6.53-4.34-.83.58-1.53,1.02-2.17,1.35-.63.34-1.15.61-1.63.86-.2-.1,1.1-.94,2.85-2.16.85-.64,1.87-1.3,2.83-2.07.94-.78,1.95-1.52,2.76-2.28-1.11.9-1.43.99-1.22.75.1-.13.32-.35.61-.63.27-.29.61-.65.96-1.03.26-.26.43-.44.54-.58.16-.17.32-.34.48-.51l-.39.36c0-.06-.12-.01-.45.2-2.62,2.63-5.2,4.04-7.16,5.44.56-.24.45-.02-.13.4-.58.42-1.6,1.09-2.77,1.83-1.22.69-2.57,1.49-3.83,2.16-1.27.66-2.37,1.28-3.06,1.66l-3.25,1.65-1.25.57c-.28.05.05-.17,1.89-1.16-.75.44-2.47,1.22-3.92,1.91-1.47.66-2.68,1.22-2.39,1.2-3.9,1.65-7.89,3.2-11.92,4.71l3.18,8.47.64-.24c.41-.13.81-.25,1.12-.32.43-.2.49-.26.42-.26,9.28-3.49,18.51-6.86,27.85-9.54,4.67-1.32,9.37-2.47,14.09-3.38,4.72-.89,9.46-1.47,14.2-1.75-1.4.01-2.72.13-4.04.19-1.33.05-2.66.18-4.12.34,2.15-.48.96-.34-.62-.15-1.58.16-3.53.54-2.93.23.97-.25,2.17-.45,3.35-.59,1.18-.14,2.33-.3,3.19-.31.31-.12-.15-.17-.66-.21-.51-.03-1.06-.05-.93-.18-3.64.32-5.7.89-7.73,1.41-2.02.6-4.01,1.14-7.51,1.94.22-.27,2.34-1.01-2.23.15.38-.12.76-.24,1.15-.34-3.63,1.07-5.08,1.34-6.18,1.59-1.1.25-1.86.41-4.06,1.41l.02-.34c-3.23,1.22-9.6,3.4-13.16,4.73l.19-.14c-8.09,3.26-6.71,2.63-12.43,4.79l-2.47-6.57c.78-.31,2.32-.91,4.38-1.72l-4.28,1.97,2.28,6.06.75-.34c-.29.1-.55.19-.78.27l-2.22-5.91c3.27-1.16,4.08-1.84,6.65-2.8-.17.13.55.1-2.04,1.17,4.45-1.92,8.83-3.92,13.06-6.12,2.95-1.71-.71.1-1.27.17Z"></path>
      <path class="cls-1" d="m102.16,138.23c.6-.42,1.31-.88,2.07-1.5-.75.58-1.44,1.04-2.07,1.5Z"></path>
      <path class="cls-1" d="m135.03,145.71c-1.33-.03-2.66.1-3.99.14,1.24-.01,2.53-.13,3.99-.14Z"></path>
      <path class="cls-1" d="m115.15,123.91c-.72.91-.52.52-.14-.14.34-.69.81-1.67.86-1.87l-.99,1.78-1.14,1.69c-.71,1.16-1.64,2.18-2.48,3.26.12.05-.28.78-.1.72l2.11-2.64,1.88-2.79Z"></path>
      <path class="cls-1" d="m109.49,130.24c-.14.25-.64.98-1.32,1.7.58-.5,1.05-1.09,1.58-1.63.5-.56,1.07-1.07,1.52-1.68-.04-.02-.16.06-.42.31-.27.24-.71.64-1.36,1.3Z"></path>
      <path class="cls-1" d="m114.98,134.04l-1.13,1.22c-.28.31-.55.64-.84.95l-.89.89c1.03-.94,1.92-2.03,2.86-3.06Z"></path>
      <path class="cls-1" d="m93.99,148.73c.9-.38,2.16-1.01,3.31-1.68,1.14-.68,2.18-1.35,2.7-1.68-3.68,2.15-2.1,1.2-6.01,3.35Z"></path>
      <polygon class="cls-1" points="99.61 147.93 97.82 149.03 96 150.06 96.36 149.9 98 148.95 99.61 147.93"></polygon>
      <path class="cls-1" d="m163.3,150.54c.55.28,1.05.59,1.56.92-.68-.46-1.16-.72-1.56-.92Z"></path>
      <path class="cls-1" d="m131.34,144.87c2.33-.02,3.11.02,3.03.08-.09.03-1.05.13-2.2.22-2.31.14-5.41.57-3.94.66,1.67-.24,3.35-.3,5.02-.45l-.42.14c1.02-.07,2.04-.08,3.06-.07,1.02,0,2.04-.03,3.06.01-1.25-.26-2.2-.24-1.92-.48,2.06,0,3.23.18,3.95.22.72.07.97.13,1.15.18.36.11.48.19,3.36.66,2.95.35,5.86.96,8.68,1.78l-.7-.13c.71.2,1.04.26,1.29.3,4.14,1.32,8.13,3.09,11.44,5.6.86.59,1.61,1.29,2.38,1.96.39.33.71.72,1.07,1.08l.53.55c.12.12.11.12.14.15l.07.08.28.34.17.25c.06.08.11.17.16.26l.07.13s.09.11.01.11l-.6.2c-.43.22-.32.29-.02.33.27.04.79.03.24.37.47-.14.99-.29,1.53-.44.03,0,.06-.02.09-.03l-.04-.08-.08-.16-.16-.32c-.09-.22-.24-.41-.36-.61-.11-.19-.27-.4-.44-.61-.08-.1-.16-.2-.24-.3-.05-.06-.05-.07-.14-.16l-.28-.28c-1.41-1.53-2.66-2.38-2.89-2.4.18.1.59.24-.34-.57l-1.52-.92-1.58-.81,1.38.96,1.29,1.05c-1.44-.98-4.61-2.96-7.97-4.33-3.34-1.42-6.72-2.37-7.75-2.7,3.3.73,4.12.93,5.26,1.21.58.13,1.21.33,2.24.75.52.2,1.13.45,1.85.82.36.18.76.38,1.2.59.42.24.87.51,1.37.8-.3-.3-1.7-1.3.16-.34-2.38-1.32-4.86-2.38-7.41-3.2-2.54-.83-5.13-1.48-7.78-1.93-2.65-.44-5.34-.68-8.15-.76-1.4-.09-2.82-.03-4.25-.02-1.43,0-2.89.12-4.37.24Z"></path>
      <path class="cls-1" d="m113.38,165.66l.1-.03c-.21,0-.28,0-.1.03Z"></path>
      <path class="cls-1" d="m117.28,166.1c1.9.02,3.8,0,5.7-.02-2.95-.17-5.89-.39-8.83-.68l-.67.23c.79.01,3.9.15,5.09.36l-1.29.1Z"></path>
      <path class="cls-1" d="m129.58,166.1c-4.58-.03-4.35.33-1.85.59-4.22,0-2.2-.48-5.12-.25.08.28,5.28.38,6.47.35l.5-.69Z"></path>
      <polygon class="cls-1" points="162.34 161.46 161.13 161.95 164.21 161.14 162.34 161.46"></polygon>
      <path class="cls-1" d="m161.13,161.95c-1.02.25-2.04.52-3.05.75.24.05.47.11.99.06l2.06-.81Z"></path>
      <path class="cls-1" d="m150.05,164.41c-1.3.21-2.73.48-4.48.73,1.49-.2,2.98-.47,4.48-.73Z"></path>
      <path class="cls-1" d="m153.56,163.77l-.11-.02-3.4.67c1.25-.23,2.38-.44,3.51-.65Z"></path>
      <path class="cls-1" d="m158.08,162.7c-.56-.13-1.2-.19-5.58.85l.95.19c1.54-.33,3.09-.67,4.63-1.04Z"></path>
      <polygon class="cls-1" points="70.14 154.37 73.53 152.95 73.15 153.05 70.08 154.34 72.16 159.87 72.47 159.74 72.14 159.82 70.09 154.38 70.14 154.37"></polygon>
      <path class="cls-1" d="m90.19,147.37c.85-.33,1.49-.6,2.08-.84-.9.33-1.62.61-2.08.84Z"></path>
      <path class="cls-1" d="m104.98,141.15c4.33-.85-5.8,1.84,2.13-.07.38.03-.35.34-1.63.75-1.27.44-3.11.96-4.96,1.43.22-.32,3.56-1.11,1.22-.73-2.38.93-3.34,1.06-2.4,1.12-4.04,1.39-4.39,1.81-7.08,2.87,1.21-.42,2.77-.92,4.52-1.47,1.77-.5,3.71-1.1,5.73-1.62,4.01-1.11,8.25-2.1,11.43-2.95,3.49-1.09,1.23-1.2,1.13-1.79-.29-.02-2.76.44-5.19.97-2.41.59-4.78,1.23-4.9,1.48Z"></path>
      <path class="cls-1" d="m98.14,142.45c-1.97.54-2.55.76-3.73,1.18.38.09,2.14-.72,3.73-1.18Z"></path>
      <path class="cls-1" d="m144.79,141.05c.39-.09,4.02.35,3.27.1-1.83-.25-3.68-.44-5.52-.51,1.29.07,1.74.27,2.25.42Z"></path>
      <path class="cls-1" d="m140.12,140.54l2.42.09c-.6-.04-1.35-.07-2.42-.09Z"></path>
      <path class="cls-1" d="m145.04,141.13c-.09-.03-.16-.05-.26-.08-.08,0-.07.03.26.08Z"></path>
      <path class="cls-1" d="m137.37,165.99c.06-.16-2.25.09-3.41.15.95,0,2.28,0,3.41-.15Z"></path>
      <path class="cls-1" d="m46.32,172.4l-2,.96c.72-.31,1.09-.47,2-.96Z"></path>
      <path class="cls-1" d="m21.35,195c-.03.06-.13.18-.28.34.15-.15.25-.27.28-.34Z"></path>
      <path class="cls-1" d="m21.07,195.34c-1.07.99-4.53,3.91-5.59,5.15l.11-.18-2.15,2.12c2.09-1.91,6.45-5.95,7.63-7.09Z"></path>
    </g>
  </g>
</svg>